# xmcd
# Copyright (C) 1995-1998 Ti Kan
#
# Track frame offsets:
#       150
#       19841
#       44479
#       64500
#       81098
#       102543
#       130528
#       144996
#       159852
#       178279
#       200134
#       217288
#       229375
#       249605
#
# Disc length: 3717 seconds
#
# Revision: 0
# Processed by: cddbd v1.5.2PL0 Copyright (c) Steve Scherf et al.
# Submitted via: CD-Import v1.0
#
DISCID=ce0e830e
DTITLE=Jan Delay - Mercedes-Dance-Live
DYEAR=1900
DGENRE=
TTITLE0=Mercedes Dance Intro
TTITLE1=Klar
TTITLE2=Kartoffeln
TTITLE3=Kirchturmkandidaten
TTITLE4=Vergiftet
TTITLE5=Raveheart
TTITLE6=Plastik
TTITLE7=Türlich, Türlich
TTITLE8=Feuer
TTITLE9=Für Immer Und Dich
TTITLE10=Ahn' Ich Gar Nich
TTITLE11=Die Sonne Die Scheint
TTITLE12=Im Arsch
TTITLE13=Irgendwie, Irgendwo, Irgendwann
EXTD=
EXTT0=
EXTT1=
EXTT2=
EXTT3=
EXTT4=
EXTT5=
EXTT6=
EXTT7=
EXTT8=
EXTT9=
EXTT10=
EXTT11=
EXTT12=
EXTT13=
PLAYORDER=
